<mxfile host="app.diagrams.net" modified="2023-08-23T22:38:49.577Z" agent="Mozilla/5.0 (Windows NT 10.0; Win64; x64) AppleWebKit/537.36 (KHTML, like Gecko) Chrome/115.0.0.0 Safari/537.36 OPR/101.0.0.0" version="21.6.9" etag="Z9RHgLdcfEHdZ6M4Sq18" type="github">
  <diagram name="Page-1" id="rut9_6CQOEPtHjp8Rf0L">
    <mxGraphModel>
      <root>
        <mxCell id="0" />
        <mxCell id="1" parent="0" />
      </root>
    </mxGraphModel>
  </diagram>
</mxfile>
